<mxfile host="Electron" modified="2024-02-18T09:25:00.352Z" agent="Mozilla/5.0 (Macintosh; Intel Mac OS X 10_15_7) AppleWebKit/537.36 (KHTML, like Gecko) draw.io/22.1.18 Chrome/120.0.6099.199 Electron/28.1.2 Safari/537.36" etag="xjPwsw_xym0ea9LwFkpz" version="22.1.18" type="device">
  <diagram name="第 1 页" id="fLLPWvR3aa9V6R80zSqb">
    <mxGraphModel dx="852" dy="568" grid="1" gridSize="10" guides="1" tooltips="1" connect="1" arrows="1" fold="1" page="1" pageScale="1" pageWidth="827" pageHeight="1169" math="0" shadow="0">
      <root>
        <mxCell id="0" />
        <mxCell id="1" parent="0" />
        <mxCell id="OQ5xMN8gmxdGNkXBdOgt-2" value="&lt;span style=&quot;font-size: 16px;&quot;&gt;&lt;font style=&quot;font-size: 16px;&quot;&gt;数据&lt;/font&gt;&lt;/span&gt;" style="rounded=0;whiteSpace=wrap;html=1;fillColor=#f5f5f5;fontColor=#333333;strokeColor=#666666;fontFamily=SimSun;fontSize=16;" vertex="1" parent="1">
          <mxGeometry x="280" y="200" width="200" height="120" as="geometry" />
        </mxCell>
        <mxCell id="OQ5xMN8gmxdGNkXBdOgt-3" value="行标签" style="rounded=0;whiteSpace=wrap;html=1;fillColor=#D5E8D4;fontFamily=SimSun;fontSize=16;horizontal=0;" vertex="1" parent="1">
          <mxGeometry x="230" y="200" width="40" height="120" as="geometry" />
        </mxCell>
        <mxCell id="OQ5xMN8gmxdGNkXBdOgt-4" value="" style="rounded=0;whiteSpace=wrap;html=1;fillColor=#D4E1F5;" vertex="1" parent="1">
          <mxGeometry x="280" y="150" width="200" height="40" as="geometry" />
        </mxCell>
        <mxCell id="OQ5xMN8gmxdGNkXBdOgt-7" value="列标签" style="text;html=1;strokeColor=none;fillColor=none;align=center;verticalAlign=middle;whiteSpace=wrap;rounded=0;fontFamily=SimSun;fontSize=16;" vertex="1" parent="1">
          <mxGeometry x="340" y="155" width="80" height="30" as="geometry" />
        </mxCell>
      </root>
    </mxGraphModel>
  </diagram>
</mxfile>
